<svg width="24" height="25" viewBox="0 0 24 25" fill="none" xmlns="http://www.w3.org/2000/svg">
<g clip-path="url(#clip0_187_838)">
<path d="M16.434 3.5C16.752 3.50006 17.0653 3.57593 17.3481 3.72132C17.6309 3.86671 17.8749 4.07743 18.06 4.336L18.149 4.471L20.573 8.511C20.8119 8.90941 20.955 9.35786 20.991 9.821L21 10.054V19.5C21.0002 20.0046 20.8096 20.4906 20.4665 20.8605C20.1234 21.2305 19.6532 21.4572 19.15 21.495L19 21.5H5C4.49542 21.5002 4.00943 21.3096 3.63945 20.9665C3.26947 20.6234 3.04284 20.1532 3.005 19.65L3 19.5V10.054C3.00003 9.58888 3.10821 9.13013 3.316 8.714L3.428 8.51L5.85 4.471C6.0136 4.19815 6.23994 3.96826 6.51021 3.80043C6.78048 3.63259 7.08689 3.53166 7.404 3.506L7.566 3.5H16.434ZM19 10.5H5V19.5H19V10.5ZM11 5.5H7.566L5.766 8.5H11V5.5ZM16.434 5.5H13V8.5H18.234L16.434 5.5Z" fill="#B2B2B2"/>
</g>
<defs>
<clipPath id="clip0_187_838">
<rect width="24" height="24" fill="white" transform="translate(0 0.5)"/>
</clipPath>
</defs>
</svg>
