<svg width="24" height="25" viewBox="0 0 24 25" fill="none" xmlns="http://www.w3.org/2000/svg">
<g clip-path="url(#clip0_187_842)">
<path d="M12 2.6437C14.314 2.6437 16.456 3.0517 18.058 3.7527C18.857 4.1027 19.567 4.5447 20.09 5.0867C20.575 5.5867 20.935 6.2147 20.992 6.9427L21 7.1437V17.1437C21 17.9577 20.619 18.6537 20.09 19.2007C19.567 19.7427 18.857 20.1847 18.058 20.5347C16.456 21.2347 14.314 21.6437 12 21.6437C9.686 21.6437 7.544 21.2357 5.942 20.5347C5.143 20.1847 4.433 19.7427 3.91 19.2007C3.425 18.7007 3.065 18.0727 3.008 17.3447L3 17.1437V7.1437C3 6.3297 3.381 5.6337 3.91 5.0867C4.433 4.5447 5.143 4.1027 5.942 3.7527C7.544 3.0527 9.686 2.6437 12 2.6437ZM19 15.0507C18.697 15.2327 18.3823 15.3943 18.058 15.5347C16.456 16.2347 14.314 16.6437 12 16.6437C9.686 16.6437 7.544 16.2357 5.942 15.5347C5.61765 15.3943 5.30296 15.2327 5 15.0507V17.1437C5 17.2957 5.066 17.5197 5.348 17.8107C5.634 18.1067 6.096 18.4187 6.744 18.7027C8.038 19.2687 9.895 19.6437 12 19.6437C14.105 19.6437 15.962 19.2687 17.256 18.7027C17.904 18.4187 18.366 18.1067 18.652 17.8107C18.934 17.5207 19 17.2957 19 17.1437V15.0507ZM19 10.0507C18.697 10.2327 18.3823 10.3943 18.058 10.5347C16.456 11.2347 14.314 11.6437 12 11.6437C9.686 11.6437 7.544 11.2357 5.942 10.5347C5.61765 10.3943 5.30296 10.2327 5 10.0507V12.1437C5 12.2957 5.066 12.5197 5.348 12.8107C5.634 13.1067 6.096 13.4187 6.744 13.7027C8.038 14.2687 9.895 14.6437 12 14.6437C14.105 14.6437 15.962 14.2687 17.256 13.7027C17.904 13.4187 18.366 13.1067 18.652 12.8107C18.934 12.5207 19 12.2957 19 12.1437V10.0507ZM12 4.6437C9.895 4.6437 8.038 5.0187 6.744 5.5847C6.096 5.8687 5.634 6.1807 5.348 6.4767C5.066 6.7667 5 6.9917 5 7.1437C5 7.2957 5.066 7.5197 5.348 7.8107C5.634 8.1067 6.096 8.4187 6.744 8.7027C8.038 9.2687 9.895 9.6437 12 9.6437C14.105 9.6437 15.962 9.2687 17.256 8.7027C17.904 8.4187 18.366 8.1067 18.652 7.8107C18.934 7.5207 19 7.2957 19 7.1437C19 6.9917 18.934 6.7677 18.652 6.4767C18.366 6.1807 17.904 5.8687 17.256 5.5847C15.962 5.0187 14.105 4.6437 12 4.6437Z" fill="#B2B2B2"/>
</g>
<defs>
<clipPath id="clip0_187_842">
<rect width="24" height="24" fill="white" transform="translate(0 0.5)"/>
</clipPath>
</defs>
</svg>
