<svg width="20" height="20" viewBox="0 0 20 20" fill="none" xmlns="http://www.w3.org/2000/svg">
<path fill-rule="evenodd" clip-rule="evenodd" d="M1.4431 16.4177C0.852361 17.0084 0.852362 17.9662 1.4431 18.5569C2.03384 19.1477 2.99161 19.1477 3.58235 18.5569L9.99985 12.1395L16.4178 18.5574C17.0085 19.1481 17.9663 19.1481 18.557 18.5574C19.1478 17.9667 19.1478 17.0089 18.557 16.4181L12.1391 10.0002L18.5571 3.58229C19.1478 2.99155 19.1478 2.03378 18.5571 1.44305C17.9663 0.852317 17.0086 0.852317 16.4178 1.44305L9.99985 7.861L3.5823 1.44349C2.99156 0.852757 2.03379 0.852757 1.44305 1.44349C0.852316 2.03422 0.852316 2.99199 1.44305 3.58273L7.8606 10.0002L1.4431 16.4177Z" fill="#D0D0D0"/>
</svg>
