<svg width="24" height="25" viewBox="0 0 24 25" fill="none" xmlns="http://www.w3.org/2000/svg">
<path d="M20 19.5V11C20 10.8448 19.9639 10.6916 19.8944 10.5528C19.825 10.4139 19.7242 10.2931 19.6 10.2L12.6 4.95C12.4269 4.82018 12.2164 4.75 12 4.75C11.7836 4.75 11.5731 4.82018 11.4 4.95L4.4 10.2C4.2758 10.2931 4.175 10.4139 4.10557 10.5528C4.03614 10.6916 4 10.8448 4 11V19.5C4 19.7652 4.10536 20.0196 4.29289 20.2071C4.48043 20.3946 4.73478 20.5 5 20.5H9C9.26522 20.5 9.51957 20.3946 9.70711 20.2071C9.89464 20.0196 10 19.7652 10 19.5V16.5C10 16.2348 10.1054 15.9804 10.2929 15.7929C10.4804 15.6054 10.7348 15.5 11 15.5H13C13.2652 15.5 13.5196 15.6054 13.7071 15.7929C13.8946 15.9804 14 16.2348 14 16.5V19.5C14 19.7652 14.1054 20.0196 14.2929 20.2071C14.4804 20.3946 14.7348 20.5 15 20.5H19C19.2652 20.5 19.5196 20.3946 19.7071 20.2071C19.8946 20.0196 20 19.7652 20 19.5Z" stroke="#B2B2B2" stroke-width="2" stroke-linecap="round" stroke-linejoin="round"/>
</svg>
