<svg width="15" height="15" viewBox="0 0 15 15" fill="none" xmlns="http://www.w3.org/2000/svg">
<path d="M7.5 0C3.36 0 0 3.36 0 7.5C0 11.64 3.36 15 7.5 15C11.64 15 15 11.64 15 7.5C15 3.36 11.64 0 7.5 0ZM7.5 13.5C4.1925 13.5 1.5 10.8075 1.5 7.5C1.5 4.1925 4.1925 1.5 7.5 1.5C10.8075 1.5 13.5 4.1925 13.5 7.5C13.5 10.8075 10.8075 13.5 7.5 13.5ZM3.375 11.625L9.0075 9.0075L11.625 3.375L5.9925 5.9925L3.375 11.625ZM7.5 6.675C7.9575 6.675 8.325 7.0425 8.325 7.5C8.325 7.9575 7.9575 8.325 7.5 8.325C7.0425 8.325 6.675 7.9575 6.675 7.5C6.675 7.0425 7.0425 6.675 7.5 6.675Z" fill="#6E6E6E"/>
</svg>
