<svg width="32" height="32" viewBox="0 0 32 32" fill="none" xmlns="http://www.w3.org/2000/svg">
<rect width="32" height="32" rx="16" fill="black"/>
<path fill-rule="evenodd" clip-rule="evenodd" d="M10.2961 20.2781C9.90231 20.6719 9.90231 21.3104 10.2961 21.7042C10.6899 22.098 11.3284 22.098 11.7222 21.7042L16 17.4264L20.2781 21.7045C20.672 22.0983 21.3104 22.0983 21.7043 21.7045C22.0981 21.3107 22.0981 20.6722 21.7043 20.2784L17.4261 16.0003L21.705 11.7215C22.0988 11.3277 22.0988 10.6892 21.705 10.2954C21.3112 9.90155 20.6727 9.90155 20.2789 10.2954L16 14.5742L11.7215 10.2957C11.3277 9.90185 10.6892 9.90185 10.2954 10.2957C9.90155 10.6895 9.90155 11.328 10.2954 11.7218L14.5739 16.0003L10.2961 20.2781Z" fill="white"/>
</svg>
